<?xml version="1.0" encoding="UTF-8" standalone="no"?>
<svg width="52px" height="52px" viewBox="0 0 52 52" version="1.1" xmlns="http://www.w3.org/2000/svg" xmlns:xlink="http://www.w3.org/1999/xlink">
    <!-- Generator: Sketch 39.1 (31720) - http://www.bohemiancoding.com/sketch -->
    <title>小太阳</title>
    <desc>Created with Sketch.</desc>
    <defs></defs>
    <g id="时间组件" stroke="none" stroke-width="1" fill="none" fill-rule="evenodd">
        <g id="使用A字体" transform="translate(-2074.000000, -2576.000000)">
            <g id="小太阳" transform="translate(2060.000000, 2562.000000)">
                <path d="M40,55 C48.2842712,55 55,48.2842712 55,40 C55,31.7157288 48.2842712,25 40,25 C31.7157288,25 25,31.7157288 25,40 C25,48.2842712 31.7157288,55 40,55 Z" id="Oval" fill="#FFE100"></path>
                <path d="M38,13.999615 C38,12.8952581 38.8877296,12 40,12 C41.1045695,12 42,12.8874333 42,13.999615 L42,20.000385 C42,21.1047419 41.1122704,22 40,22 C38.8954305,22 38,21.1125667 38,20.000385 L38,13.999615 Z M58,40 C58,38.8954305 58.8874333,38 59.999615,38 L66.000385,38 C67.1047419,38 68,38.8877296 68,40 C68,41.1045695 67.1125667,42 66.000385,42 L59.999615,42 C58.8952581,42 58,41.1122704 58,40 Z M12,40 C12,38.8954305 12.8874333,38 13.999615,38 L20.000385,38 C21.1047419,38 22,38.8877296 22,40 C22,41.1045695 21.1125667,42 20.000385,42 L13.999615,42 C12.8952581,42 12,41.1122704 12,40 Z M38,59.999615 C38,58.8952581 38.8877296,58 40,58 C41.1045695,58 42,58.8874333 42,59.999615 L42,66.000385 C42,67.1047419 41.1122704,68 40,68 C38.8954305,68 38,67.1125667 38,66.000385 L38,59.999615 Z" id="Combined-Shape" fill="#E67A1F" transform="translate(40.000000, 40.000000) rotate(45.000000) translate(-40.000000, -40.000000) "></path>
                <path d="M60,40 C60,39.4477153 60.4509752,39 60.990778,39 L65.009222,39 C65.5564136,39 66,39.4438648 66,40 C66,40.5522847 65.5490248,41 65.009222,41 L60.990778,41 C60.4435864,41 60,40.5561352 60,40 Z M14,40 C14,39.4477153 14.4509752,39 14.990778,39 L19.009222,39 C19.5564136,39 20,39.4438648 20,40 C20,40.5522847 19.5490248,41 19.009222,41 L14.990778,41 C14.4435864,41 14,40.5561352 14,40 Z M39,14.990778 C39,14.4435864 39.4438648,14 40,14 C40.5522847,14 41,14.4509752 41,14.990778 L41,19.009222 C41,19.5564136 40.5561352,20 40,20 C39.4477153,20 39,19.5490248 39,19.009222 L39,14.990778 Z M39,60.990778 C39,60.4435864 39.4438648,60 40,60 C40.5522847,60 41,60.4509752 41,60.990778 L41,65.009222 C41,65.5564136 40.5561352,66 40,66 C39.4477153,66 39,65.5490248 39,65.009222 L39,60.990778 Z" id="Combined-Shape" fill="#E67A1F"></path>
            </g>
        </g>
    </g>
</svg>